<?xml version="1.0" encoding="utf-8"?>
<!-- Generator: Adobe Illustrator 17.1.0, SVG Export Plug-In . SVG Version: 6.00 Build 0)  -->
<!DOCTYPE svg PUBLIC "-//W3C//DTD SVG 1.1//EN" "http://www.w3.org/Graphics/SVG/1.1/DTD/svg11.dtd">
<svg version="1.1" id="Layer_1" xmlns="http://www.w3.org/2000/svg" xmlns:xlink="http://www.w3.org/1999/xlink" x="0px" y="0px"
	 viewBox="0 0 17 24" enable-background="new 0 0 17 24" xml:space="preserve">
<path d="M7,2.5C7,1.1,8.1,0,9.5,0S12,1.1,12,2.5S10.9,5,9.5,5S7,3.9,7,2.5z M3.8,11c0.3-0.9,1.8-6,1.8-6C4.7,5,3.4,4.9,2.2,5.9
	s-2,2.7-2.2,4c-0.2,1.2,0.7,1.6,1.7,1.9C2.7,12.1,3.6,11.7,3.8,11z M16.9,7.6C16.7,7.2,16.4,7,16,7V6h-1v1.4l-2.8,1.4L9.7,6.2
	c0,0,0,0,0,0C9.6,6,9.3,5.9,9.1,5.8L6.6,5.2l-1.9,6.5c-0.2,1.2-0.2,2.1,1,3.1L9,17.5V23c0,0.6,0.4,1,1,1c0.6,0,1-0.4,1-1v-6
	c0-0.3-0.1-0.5-0.3-0.7l-0.2-0.2l-2.4-3l1.1-4.5l2,2.1c0.2,0.2,0.5,0.3,0.7,0.3c0.2,0,0.3,0,0.4-0.1L15,9.6V24h1V9.1l0.4-0.2
	C17,8.6,17.2,8,16.9,7.6z M4.5,14.6L4,17.8c0,0,0,0,0,0l-1.9,4.8c-0.2,0.5,0,1.1,0.6,1.3C2.8,24,2.9,24,3,24c0.4,0,0.8-0.2,0.9-0.6
	l1.9-4.8C5.9,18.5,6,18.3,6,18.2l0.4-1.4C5.1,15.7,4.5,15.3,4.5,14.6z"/>
</svg>
