<?xml version="1.0" encoding="utf-8"?>
<!-- Generator: Adobe Illustrator 17.1.0, SVG Export Plug-In . SVG Version: 6.00 Build 0)  -->
<!DOCTYPE svg PUBLIC "-//W3C//DTD SVG 1.1//EN" "http://www.w3.org/Graphics/SVG/1.1/DTD/svg11.dtd">
<svg version="1.1" xmlns="http://www.w3.org/2000/svg" xmlns:xlink="http://www.w3.org/1999/xlink" x="0px" y="0px"
	 viewBox="-279.4 -307.2 255.8 275.5" enable-background="new -279.4 -307.2 255.8 275.5" xml:space="preserve">
<g id="Layer_1">
	<path fill="none" d="M-5.9-5.5c0,55.3,44.7,100,100,100"/>
	<path fill="none" d="M-5.9-5.5c0-2.3,1.9-4.1,4.2-4.1"/>
	<line fill="none" x1="-3.5" y1="-7.8" x2="-3.5" y2="-7.8"/>
</g>
<g id="Layer_2">
	<g>
		<path d="M-164.8-274c-3-19.4,13.5-35.9,32.9-32.9c12.1,1.8,22,11.7,23.8,23.8c3,19.4-13.5,35.9-32.9,32.9
			C-153-252-162.9-261.9-164.8-274z M-58.6-228.7c-3.2-3.1-7.8-3.8-11.8-2.5L-97.8-202c-0.6,0.7-1.7,0.7-2.4,0l-33.7-34.1
			c-0.1-0.1-0.1-0.1-0.2-0.1c-1.6-2-4.7-3.8-6.9-4.5l-28.7-6.9l-21.8,74.6c-2.3,13.8-2.3,24.1,11.5,35.6l37.9,31.2l0,62.5
			c0,5,3,9.9,7.8,11.4c7.9,2.5,15.2-3.4,15.2-10.9V-112c0-3-1.2-6-3.4-8.1l-1.8-1.8l-27-34.9l12.4-51.3l23.9,23.4
			c2.2,2.3,12.1,10.9,16.5,10.8c1.7,0,3.2-0.3,4.5-1.6l20.7-21.3l7.3-8.2l7.6-7.5C-54-217-54.1-224.3-58.6-228.7z M-193.8-139.6
			l-5.7,36.7c0,0,0,0.1,0,0.1l-22.1,55.3c-2.4,5.9,0.5,12.6,6.4,14.9c1.4,0.6,2.8,0.8,4.3,0.8c4.6,0,8.9-2.7,10.7-7.2l22.1-55.3
			c0.7-1.2,1.4-2.5,1.7-4.1l4.6-16.1C-186.9-127-193.8-131.6-193.8-139.6z"/>
		<rect x="-282.4" y="-248.7" transform="matrix(0.9724 0.2335 -0.2335 0.9724 -61.633 28.5816)" width="261.8" height="5.4"/>
		<g id="Layer_8">
			<path d="M-212.5-216.3c-7,21.7-24.6,26.7-42.3,21s-29.1-20.1-22.1-41.8c5.8-17.9,24.7-28,36.5-29.7c-3.7-0.8-7.5-1.5-11.2-1.9
				c-1.3-0.1-5.1-1-3.8-1c3.8,0.1,7.6,0.7,11.3,1.3c0,0,0,0,0.1,0c-1.5-0.5-2.9-1-4.3-1.7c-1.3-0.6,0.3-0.6,1.4-0.2
				c1.3,0.5,2.7,1,4,1.5c1.2,0.4,2.5,0.7,3.8,0.9c-5.2-4.7-12.7-13.2-4.8-17.3c11.3-5.8,6.4,2.5,10.5,6.9c4.1,4.5,23.9-6.9,17.3,1.5
				c-2.8,3.6-6.5,7.2-9.7,10.2c0.3,0.2,0.6,0.5,0.8,0.8c0.5,0.9,0.8,1.9-0.1,2.7c-0.2,0.2-0.5,0.3-0.9,0.3c1,0.4,2,0.5,2.6,0
				c0.2-0.1,0.5-0.1,0.6,0.1c0.9,1.9-0.5,2.4-2.1,2.3C-214.9-250.2-206.8-234.1-212.5-216.3z M-227.4-262.3c0.4,0.4,0.9,0.8,1.3,1.2
				c0,0,0.1,0,0.1,0c0.8,0.2,2.7,0.5,2.4-0.7C-224.6-261.4-226-261.7-227.4-262.3z M-228.4-264.3c0.3,0.2,0.7,0.4,1.1,0.5
				c0.4,0.2,0.9,0.4,1.3,0.4c0.7-0.9,0.6-1.7-0.3-2.3c-0.1-0.1-0.2-0.1-0.2-0.1C-227.2-265.4-227.8-264.8-228.4-264.3z"/>
		</g>
	</g>
</g>
</svg>
